inDegrees=yes
name=ik_S49_A07_T02
DataType=double
version=3
OpenSimVersion=4.3-2021-08-27-4bc7ad9
endheader
time	pelvis_tilt	pelvis_list	pelvis_rotation	pelvis_tx	pelvis_ty	pelvis_tz	hip_flexion_r	hip_adduction_r	hip_rotation_r	knee_angle_r	knee_angle_r_beta	ankle_angle_r	subtalar_angle_r	mtp_angle_r	hip_flexion_l	hip_adduction_l	hip_rotation_l	knee_angle_l	knee_angle_l_beta	ankle_angle_l	subtalar_angle_l	mtp_angle_l	lumbar_extension	lumbar_bending	lumbar_rotation	arm_flex_r	arm_add_r	arm_rot_r	elbow_flex_r	pro_sup_r	wrist_flex_r	wrist_dev_r	arm_flex_l	arm_add_l	arm_rot_l	elbow_flex_l	pro_sup_l	wrist_flex_l	wrist_dev_l
17.63999999999971	-6.380840649736096	-2.834555746882969	22.38286894251138	0	0.9399999999999999	0	38.35966944530827	-10.75721704344966	-10.19013919648489	47.45684619754006	0.8282782187596254	0	0	0	38.35966944530827	-10.75721704344966	-10.19013919648489	47.45684619754006	0.8282782187596254	0	0	0	-5.773416209792588	-1.650228258145011	8.221027000042534	20.87342019490879	-11.03168923501634	-10.88484545613796	65.2206259933828	115.9566961108174	0	0	44.87783874046932	-8.287403181885558	19.90983137232237	21.59029701145721	113.4353915216851	0	0
17.65999999999971	-6.367021757017572	-2.789496783911512	22.38313959852315	0	0.9399999999999999	0	38.36250856212106	-10.75610341827809	-10.18995940363915	47.45903428126541	0.828316408024942	0	0	0	38.36250856212106	-10.75610341827809	-10.18995940363915	47.45903428126541	0.828316408024942	0	0	0	-5.74287755529546	-1.615863945141963	8.241765174162911	20.48656184024287	-11.14661460311013	-10.91318874368841	64.45412818610437	116.5089067664167	0	0	44.85595477089461	-8.273805153478834	19.90654802938359	21.53875811250873	113.4840326415888	0	0
17.67999999999971	-6.346291485251246	-2.747003358800002	22.35711700966111	0	0.9399999999999999	0	38.36527227834543	-10.75502319213432	-10.18978476170393	47.46116953389862	0.8283536752137534	0	0	0	38.36527227834543	-10.75502319213432	-10.18978476170393	47.46116953389862	0.8283536752137534	0	0	0	-5.706401176156454	-1.587577098876996	8.274609917027671	20.15455989371936	-11.14821884523237	-10.91837717126614	63.07213448396276	117.0796414353532	0	0	44.80904861169822	-8.285692408549785	19.97077919428855	21.46991368413194	113.4524205574918	0	0
17.69999999999971	-6.309039715627613	-2.685494797088881	22.32804679307056	0	0.9399999999999999	0	38.36699204230486	-10.75435644356786	-10.18967665572029	47.46250769550913	0.8283770305397806	0	0	0	38.36699204230486	-10.75435644356786	-10.18967665572029	47.46250769550913	0.8283770305397806	0	0	0	-5.648764278100516	-1.54467783478679	8.276671253620066	19.79996533542393	-11.17418590619667	-10.86932363887265	62.82705918262892	117.2888629123228	0	0	44.72270307078642	-8.296522108401698	19.96703081769169	21.40200242130119	113.4603562944167	0	0
17.71999999999971	-6.287303959182475	-2.6419272094348	22.47836634767954	0	0.9399999999999999	0	38.369417118666	-10.75341832618645	-10.18952440408554	47.46439668469593	0.8284099996206249	0	0	0	38.369417118666	-10.75341832618645	-10.18952440408554	47.46439668469593	0.8284099996206249	0	0	0	-5.617630063887811	-1.497731049369746	8.145107263198158	19.6331060880499	-11.10154955373914	-10.76017421139351	61.97674816229671	118.9973667974866	0	0	44.69344615588342	-8.295067714888877	19.93971348224861	21.3430405497397	113.5093593294025	0	0
17.73999999999971	-6.260749713943015	-2.624086240701725	22.52341735267525	0	0.9399999999999999	0	38.37150312294332	-10.75259550997182	-10.18939173756187	47.4659911535137	0.8284378283513153	0	0	0	38.37150312294332	-10.75259550997182	-10.18939173756187	47.4659911535137	0.8284378283513153	0	0	0	-5.589041828973758	-1.484455791810607	8.084462072857345	19.74669231802173	-10.76516521499152	-10.35334506954913	61.72027170309318	118.7662546599078	0	0	44.74226047737458	-8.445009680856455	19.87717684413131	21.3146910731569	113.5714366347801	0	0
17.75999999999971	-6.249518630216315	-2.611913690084118	22.61458433960526	0	0.9399999999999999	0	38.37349766011383	-10.75181038349527	-10.18926504352496	47.46751775072026	0.8284644724989215	0	0	0	38.37349766011383	-10.75181038349527	-10.18926504352496	47.46751775072026	0.8284644724989215	0	0	0	-5.577865775914295	-1.467477190778605	7.996118368054901	20.10024773238137	-10.30560410970116	-9.660810658537562	61.33955817616226	118.8130067564797	0	0	44.7634344429424	-8.501690122199113	19.92993774916584	21.28821446005047	113.5723116251797	0	0
17.77999999999971	-6.227737718847595	-2.573117612910324	22.70281393488109	0	0.9399999999999999	0	38.37547988791338	-10.75103141303146	-10.1891392531816	47.46903631187958	0.8284909763910445	0	0	0	38.37547988791338	-10.75103141303146	-10.1891392531816	47.46903631187958	0.8284909763910445	0	0	0	-5.547190964631747	-1.428407172462165	7.899118619233929	20.49337990914919	-10.09785876868079	-8.86300961321113	60.86879301264577	118.5753978193489	0	0	44.7046852430357	-8.504535287328533	19.98911265129935	21.26205473356245	113.5468263280426	0	0
17.79999999999971	-6.197377544622146	-2.534186826244862	22.79350499492413	0	0.9399999999999999	0	38.37794691324275	-10.75006365871984	-10.18898286078542	47.47092821287701	0.8285239962925713	0	0	0	38.37794691324275	-10.75006365871984	-10.18898286078542	47.47092821287701	0.8285239962925713	0	0	0	-5.508256661394906	-1.39320199247719	7.804150149335525	20.84262283406245	-10.06257086466278	-8.2836853520063	60.20173301859045	119.2597992878324	0	0	44.66230350128462	-8.472545063182345	20.03872013049416	21.20608262732164	113.5214632444001	0	0
17.81999999999971	-6.155629904231595	-2.501427453753824	22.86252061484515	0	0.9399999999999999	0	38.37995170434012	-10.74927951443526	-10.18885599593752	47.47246879484548	0.8285508845203182	0	0	0	38.37995170434012	-10.74927951443526	-10.18885599593752	47.47246879484548	0.8285508845203182	0	0	0	-5.4599536280275	-1.371347492723007	7.735955993277603	21.02097402188965	-10.0437892498458	-7.940291301317815	59.66685078774623	119.9351037717734	0	0	44.55237102242032	-8.469959804064542	20.02276927272883	21.16934263288728	113.5668773776042	0	0
17.83999999999971	-6.101005316085531	-2.47371533427194	22.93657681342115	0	0.9399999999999999	0	38.38210017684072	-10.74843929277119	-10.18872003589865	47.47411906993634	0.8285796872542172	0	0	0	38.38210017684072	-10.74843929277119	-10.18872003589865	47.47411906993634	0.8285796872542172	0	0	0	-5.40085215683275	-1.361900566545192	7.68876150305783	21.07964356779417	-10.04752994876095	-7.626873739090558	59.28265407648093	120.4684185446852	0	0	44.51245925111503	-8.462331792705033	20.11747045579633	21.08915247712847	113.5568998127814	0	0
17.85999999999971	-6.060534943536465	-2.459710540107463	22.99561927205378	0	0.9399999999999999	0	38.38438759697771	-10.74754257911662	-10.1885750360964	47.47587101855324	0.8286102645259078	0	0	0	38.38438759697771	-10.74754257911662	-10.1885750360964	47.47587101855324	0.8286102645259078	0	0	0	-5.358896836083956	-1.362863430365613	7.670960074826978	21.14142674793452	-10.13239134614672	-7.386325466882706	59.00647254343825	120.6271781621128	0	0	44.51476160177722	-8.438100770302491	20.15814964463069	21.00075650931103	113.6060154424938	0	0
17.87999999999971	-6.021797404851854	-2.438258176052589	23.04967349691347	0	0.9399999999999999	0	38.3862111965074	-10.74682921122725	-10.18845958361567	47.47726959072376	0.8286346742151104	0	0	0	38.3862111965074	-10.74682921122725	-10.18845958361567	47.47726959072376	0.8286346742151104	0	0	0	-5.315071890971156	-1.357924532889246	7.667440588599439	21.23613437494235	-10.31189172305539	-7.232196547876915	58.80844980954024	120.4387192125482	0	0	44.48433431679437	-8.411554598424827	20.1365867994146	20.94218975460347	113.6876865122032	0	0
17.89999999999971	-6.009627879851408	-2.431518065618357	23.09021977318471	0	0.9399999999999999	0	38.38827468629601	-10.74602172678653	-10.18832889891625	47.47885071023833	0.8286622699565069	0	0	0	38.38827468629601	-10.74602172678653	-10.18832889891625	47.47885071023833	0.8286622699565069	0	0	0	-5.302096759643255	-1.354482302311559	7.649314781516283	21.40364379567072	-10.46490347100886	-7.033656530581096	58.56332836137457	120.3877625891448	0	0	44.50559585307415	-8.388355943131621	20.07544330022493	20.89419061807892	113.7499757749328	0	0
17.91999999999971	-5.941595107764233	-2.380620915633472	23.14618631069622	0	0.9399999999999999	0	38.39026636395685	-10.74524214574666	-10.18820272691868	47.48037559130647	0.8286888841518474	0	0	0	38.39026636395685	-10.74524214574666	-10.18820272691868	47.48037559130647	0.8286888841518474	0	0	0	-5.219535110555142	-1.334761418744792	7.652761280240484	21.41274685826531	-10.5453134483834	-6.907448864247091	58.35284601391935	120.388892178798	0	0	44.38829137640265	-8.343930890259765	20.03558639916907	20.82486084748314	113.7920905409945	0	0
17.93999999999971	-5.920770012916705	-2.354653073217096	23.1756726690252	0	0.9399999999999999	0	38.39221813930422	-10.74448038520454	-10.18807930055584	47.48187301472817	0.8287150191208524	0	0	0	38.39221813930422	-10.74448038520454	-10.18807930055584	47.48187301472817	0.8287150191208524	0	0	0	-5.191766613620734	-1.315032983228071	7.616169191923131	21.51507089054162	-10.57943123172382	-6.67919469635001	58.09905785240412	120.6909667056633	0	0	44.39064875429257	-8.353907528324063	19.9942647287649	20.76220916677728	113.8048958010029	0	0
17.95999999999971	-5.891938717306683	-2.339324992582008	23.20209031417482	0	0.9399999999999999	0	38.39343773777811	-10.74400627986574	-10.1880023707513	47.48281183522332	0.8287314046295781	0	0	0	38.39343773777811	-10.74400627986574	-10.1880023707513	47.48281183522332	0.8287314046295781	0	0	0	-5.159601375206828	-1.311482900461183	7.608464197572217	21.54937826892748	-10.504474283622	-6.577407698407975	58.00035782888661	120.694374991597	0	0	44.3808759221919	-8.354160280761196	20.04184020892755	20.71950832080663	113.8061659376223	0	0
17.97999999999971	-5.88296110379071	-2.324999769525327	23.19625402854542	0	0.9399999999999999	0	38.39619321100042	-10.74293655992282	-10.1878286820702	47.48493365481528	0.8287684373675912	0	0	0	38.39619321100042	-10.74293655992282	-10.1878286820702	47.48493365481528	0.8287684373675912	0	0	0	-5.146347099442187	-1.300678656724777	7.599358089484277	21.66545851954633	-10.33278864841401	-6.573637672231765	57.64715642265212	120.9293911670495	0	0	44.39312020719267	-8.351723493928125	20.05730143947425	20.63546348916428	113.7875996016554	0	0
17.99999999999971	-5.858465159862366	-2.304048472607434	23.18436440232063	0	0.9399999999999999	0	38.40112431858189	-10.74186278169697	-10.18759780464545	47.48904101932734	0.8288401244019061	-3.544726502995791e-36	0	0	38.40112431858189	-10.74186278169697	-10.18759780464545	47.48904101932734	0.8288401244019061	-3.544726502995791e-36	0	0	-5.116132136913336	-1.290569274925208	7.598057637523708	21.59951642941867	-10.33193878779559	-6.552009667718386	57.63106108366021	120.8783498227522	0	-4.012781860675238e-36	44.39366865629106	-8.355677263296089	20.092699406136	20.59381539165225	113.7928635827584	0	-4.012781860675238e-36
18.0199999999997	-5.837853573124839	-2.279232870287595	23.17599309738089	0	0.9399999999999999	0	38.40187599215796	-10.74157502273842	-10.18755085420445	47.48962697936566	0.82885035133386	-1.39237598407519e-54	0	0	38.40187599215796	-10.74157502273842	-10.18755085420445	47.48962697936566	0.82885035133386	-1.39237598407519e-54	0	0	-5.087087215852617	-1.277031270841469	7.609848596649393	21.60441575119844	-10.2424670489686	-6.641643880741282	57.57237959298844	120.8199036897703	0	0	44.32920354824773	-8.342073583415834	20.06468337715985	20.57535345148448	113.8099576271293	0	0
18.0399999999997	-5.807957145629397	-2.261249780970188	23.16041480690972	0	0.9399999999999999	0	38.41025920773995	-10.73984349679232	-10.18716419189045	47.49661784191725	0.8289723649029396	0	0	0	38.41025920773995	-10.73984349679232	-10.18716419189045	47.49661784191725	0.8289723649029396	0	0	0	-5.053250666047688	-1.271973729443342	7.613093858954255	21.53055873777146	-10.23270619253912	-6.639112290612998	57.50684983155523	120.6930261365983	0	0	44.30737789291621	-8.340972468140873	20.0864874014322	20.51730733984991	113.8375447358836	0	0
